<?xml version="1.0" encoding="UTF-8" standalone="no"?>
<svg
   width="124.66833mm"
   height="45.616127mm"
   viewBox="0 0 124.66833 45.616127"
   version="1.1"
   id="svg8"
   inkscape:version="1.1.1 (c3084ef, 2021-09-22)"
   sodipodi:docname="banner.svg"
   xmlns:inkscape="http://www.inkscape.org/namespaces/inkscape"
   xmlns:sodipodi="http://sodipodi.sourceforge.net/DTD/sodipodi-0.dtd"
   xmlns="http://www.w3.org/2000/svg"
   xmlns:svg="http://www.w3.org/2000/svg"
   xmlns:rdf="http://www.w3.org/1999/02/22-rdf-syntax-ns#"
   xmlns:cc="http://creativecommons.org/ns#"
   xmlns:dc="http://purl.org/dc/elements/1.1/">
  <defs
     id="defs2">
    <marker
       style="overflow:visible"
       id="Torso"
       refX="0"
       refY="0"
       orient="auto"
       inkscape:stockid="Torso"
       inkscape:isstock="true">
      <g
         transform="scale(0.7)"
         id="g3029"
         style="fill:#000000;fill-opacity:1;stroke:#000000;stroke-opacity:1">
        <path
           style="fill:#000000;fill-opacity:1;fill-rule:evenodd;stroke:#000000;stroke-width:1.25;stroke-opacity:1"
           d="m -4.7792281,-3.239542 c 2.350374,0.3659393 5.30026732,1.9375477 5.03715532,3.62748546 C -0.00518779,2.0778819 -2.2126741,2.6176539 -4.5630471,2.2517169 -6.9134221,1.8857769 -8.521035,0.75201414 -8.257922,-0.93792336 -7.994809,-2.6278615 -7.1296041,-3.6054813 -4.7792281,-3.239542 Z"
           id="path3015" />
        <path
           style="fill:#000000;fill-opacity:1;fill-rule:evenodd;stroke:#000000;stroke-width:1pt;stroke-opacity:1"
           d="M 4.4598789,0.08866574 C -2.5564571,-4.378332 5.2248769,-3.9061806 -0.84829578,-8.7197331"
           id="path3017" />
        <path
           style="fill:#000000;fill-opacity:1;fill-rule:evenodd;stroke:#000000;stroke-width:1pt;stroke-opacity:1"
           d="M 4.9298719,0.05752074 C -1.3872731,1.7494689 1.8027579,5.4782079 -4.9448731,7.5462725"
           id="path3019" />
        <rect
           style="fill:#000000;fill-opacity:1;fill-rule:evenodd;stroke:#000000;stroke-width:1pt;stroke-opacity:1"
           width="2.6366582"
           height="2.7608147"
           x="-10.391706"
           y="-1.7408575"
           transform="matrix(0.527536,-0.849533,0.887668,0.460484,0,0)"
           id="rect3021" />
        <rect
           style="fill:#000000;fill-opacity:1;fill-rule:evenodd;stroke:#000000;stroke-width:1pt;stroke-opacity:1"
           width="2.7327356"
           height="2.8614161"
           x="4.9587269"
           y="-7.9629307"
           transform="matrix(0.671205,-0.741272,0.790802,0.612072,0,0)"
           id="rect3023" />
        <path
           style="fill:#000000;fill-opacity:1;fill-rule:evenodd;stroke:#000000;stroke-width:1pt;stroke-opacity:1"
           d="m 16.779951,-28.685045 a 0.60731727,0.60731727 0 1 0 -1.214634,0 0.60731727,0.60731727 0 1 0 1.214634,0 z"
           transform="matrix(0,-1.109517,1.109517,0,25.96648,19.71619)"
           id="path3025" />
        <path
           style="fill:#000000;fill-opacity:1;fill-rule:evenodd;stroke:#000000;stroke-width:1pt;stroke-opacity:1"
           d="m 16.779951,-28.685045 a 0.60731727,0.60731727 0 1 0 -1.214634,0 0.60731727,0.60731727 0 1 0 1.214634,0 z"
           transform="matrix(0,-1.109517,1.109517,0,26.8245,16.99126)"
           id="path3027" />
      </g>
    </marker>
  </defs>
  <sodipodi:namedview
     id="base"
     pagecolor="#ffffff"
     bordercolor="#666666"
     borderopacity="1.0"
     inkscape:pageopacity="0.0"
     inkscape:pageshadow="2"
     inkscape:zoom="1.4142136"
     inkscape:cx="216.72822"
     inkscape:cy="179.25156"
     inkscape:document-units="mm"
     inkscape:current-layer="layer1"
     inkscape:document-rotation="0"
     showgrid="false"
     showguides="false"
     inkscape:snap-nodes="true"
     inkscape:snap-others="false"
     inkscape:window-width="1887"
     inkscape:window-height="1081"
     inkscape:window-x="0"
     inkscape:window-y="25"
     inkscape:window-maximized="0"
     inkscape:pagecheckerboard="0"
     fit-margin-top="0"
     fit-margin-left="0"
     fit-margin-right="0"
     fit-margin-bottom="0" />
  <metadata
     id="metadata5">
    <rdf:RDF>
      <cc:Work
         rdf:about="">
        <dc:format>image/svg+xml</dc:format>
        <dc:type
           rdf:resource="http://purl.org/dc/dcmitype/StillImage" />
      </cc:Work>
    </rdf:RDF>
  </metadata>
  <g
     inkscape:label="Layer 1"
     inkscape:groupmode="layer"
     id="layer1"
     transform="translate(-43.459457,-31.96627)">
    <path
       style="fill:#000000;stroke:none;stroke-width:0.264583px;stroke-linecap:butt;stroke-linejoin:miter;stroke-opacity:1"
       d="M 79.535358,77.582396 V 31.96627 l 1.62856,0.436371 V 76.6179 Z"
       id="path835"
       sodipodi:nodetypes="ccccc" />
    <g
       id="g1002"
       style="fill:#000000"
       transform="matrix(2.0081256,0,0,2.0081256,-173.87834,-37.040511)">
      <path
         d="m 128.10296,34.932106 h 2.91999 l 0.003,0.0032 v 0.436574 l -0.003,0.0032 h -1.23696 v 4.185422 l -0.003,0.0032 h -0.43658 l -0.003,-0.0032 v -4.18544 h -1.24011 l -0.003,-0.0032 v -0.436574 z"
         style="font-style:normal;font-variant:normal;font-weight:normal;font-stretch:normal;font-size:15.5222px;line-height:0.85;font-family:'Louis George Café';-inkscape-font-specification:'Louis George Café';fill:#000000;fill-opacity:1;stroke:none;stroke-width:0.110438"
         id="path851" />
      <path
         d="m 132.861,36.526552 q 0.62322,0 0.99336,0.512501 l 0.009,0.01898 h 0.003 v -0.493519 l 0.006,-0.0095 h 0.42709 l 0.009,0.0095 v 2.989587 l -0.009,0.0095 h -0.42709 l -0.006,-0.0095 v -0.487192 h -0.003 q -0.34167,0.525156 -1.03133,0.525156 v -0.0032 l -0.006,0.0032 q -0.61374,0 -1.07562,-0.49352 -0.38596,-0.461883 -0.38596,-1.018674 v -0.03796 q 0,-0.594754 0.42708,-1.062964 0.44923,-0.452393 1.0693,-0.452393 z m -1.05348,1.521684 v 0.01582 q 0,0.528318 0.42392,0.876313 0.26574,0.205632 0.59159,0.205632 0.6865,0 0.94908,-0.673843 0.0696,-0.196142 0.0696,-0.392285 v -0.0696 q 0,-0.275232 -0.174,-0.575772 -0.29738,-0.45872 -0.79406,-0.45872 -0.67068,0 -0.97438,0.632717 -0.0917,0.224614 -0.0917,0.439738 z"
         style="font-style:normal;font-variant:normal;font-weight:normal;font-stretch:normal;font-size:15.5222px;line-height:0.85;font-family:'Louis George Café';-inkscape-font-specification:'Louis George Café';fill:#000000;fill-opacity:1;stroke:none;stroke-width:0.110438"
         id="path853" />
      <path
         d="m 135.27165,34.932106 h 0.43657 l 0.003,0.0032 v 4.62516 l -0.003,0.0032 h -0.43657 l -0.003,-0.0032 v -4.625169 z"
         style="font-style:normal;font-variant:normal;font-weight:normal;font-stretch:normal;font-size:15.5222px;line-height:0.85;font-family:'Louis George Café';-inkscape-font-specification:'Louis George Café';fill:#000000;fill-opacity:1;stroke:none;stroke-width:0.110438"
         id="path855" />
      <path
         d="m 136.67944,34.932106 h 0.43658 l 0.003,0.0032 v 4.62516 l -0.003,0.0032 h -0.43658 l -0.003,-0.0032 v -4.625169 z"
         style="font-style:normal;font-variant:normal;font-weight:normal;font-stretch:normal;font-size:15.5222px;line-height:0.85;font-family:'Louis George Café';-inkscape-font-specification:'Louis George Café';fill:#000000;fill-opacity:1;stroke:none;stroke-width:0.110438"
         id="path857" />
      <path
         d="m 139.2546,36.529716 q 0.6517,0 1.11674,0.575772 0.30687,0.452393 0.30687,0.88264 v 0.03796 q 0,0.145525 -0.019,0.145525 h -2.40116 q 0,0.151852 0.12655,0.427084 0.18981,0.354321 0.5473,0.493519 0.17399,0.05694 0.31319,0.05694 0.43341,0 0.74977,-0.376467 0.11072,-0.151852 0.14552,-0.243596 h 0.006 q 0.25625,0.101235 0.40177,0.170833 -0.0696,0.199306 -0.31003,0.465048 -0.43657,0.427083 -0.9902,0.427083 -0.66119,0 -1.1294,-0.578936 -0.30687,-0.439738 -0.30687,-0.933257 v -0.02847 q 0,-0.632717 0.4524,-1.107255 0.42392,-0.414429 0.9902,-0.414429 z m -0.95224,1.205325 h 1.89182 q -0.13287,-0.414429 -0.44923,-0.610572 -0.23094,-0.148688 -0.50301,-0.148688 -0.46188,0 -0.78773,0.430248 -0.10123,0.148688 -0.15185,0.329012 z"
         style="font-style:normal;font-variant:normal;font-weight:normal;font-stretch:normal;font-size:15.5222px;line-height:0.85;font-family:'Louis George Café';-inkscape-font-specification:'Louis George Café';fill:#000000;fill-opacity:1;stroke:none;stroke-width:0.110438"
         id="path859" />
      <path
         d="m 142.68076,36.536043 q 0.3385,0 0.58843,0.148689 l -0.0981,0.471373 h -0.003 q -0.28156,-0.164506 -0.51883,-0.164506 -0.52832,0 -0.74028,0.487192 -0.0474,0.117053 -0.0474,0.240433 v 1.834878 l -0.009,0.0095 h -0.42392 l -0.009,-0.0095 v -2.94846 l 0.009,-0.0095 h 0.42392 l 0.009,0.0095 v 0.25625 h 0.003 q 0.13919,-0.192978 0.4081,-0.272068 0.2088,-0.05378 0.4081,-0.05378 z"
         style="font-style:normal;font-variant:normal;font-weight:normal;font-stretch:normal;font-size:15.5222px;line-height:0.85;font-family:'Louis George Café';-inkscape-font-specification:'Louis George Café';fill:#000000;fill-opacity:1;stroke:none;stroke-width:0.110438"
         id="path861" />
      <path
         d="m 147.79944,34.932106 h 0.42709 l 0.009,0.0095 v 4.61567 l -0.009,0.0063 h -0.42709 l -0.006,-0.0063 V 39.06692 h -0.003 q -0.34166,0.525155 -1.03132,0.525155 v -0.0032 l -0.006,0.0032 q -0.61374,0 -1.07562,-0.493519 -0.38595,-0.461884 -0.38595,-1.018674 v -0.03796 q 0,-0.594754 0.42708,-1.062965 0.44923,-0.452392 1.06929,-0.452392 0.62323,0 0.99337,0.512501 l 0.009,0.01898 h 0.003 v -2.116438 z m -2.06582,3.11613 v 0.01582 q 0,0.528318 0.42392,0.876313 0.26574,0.205632 0.59159,0.205632 0.6865,0 0.94908,-0.673843 0.0696,-0.196142 0.0696,-0.392285 v -0.0696 q 0,-0.275232 -0.17399,-0.575772 -0.29738,-0.45872 -0.79406,-0.45872 -0.67068,0 -0.97439,0.632717 -0.0917,0.224614 -0.0917,0.439738 z"
         style="font-style:normal;font-variant:normal;font-weight:normal;font-stretch:normal;font-size:15.5222px;line-height:0.85;font-family:'Louis George Café';-inkscape-font-specification:'Louis George Café';fill:#000000;fill-opacity:1;stroke:none;stroke-width:0.110438"
         id="path863" />
      <path
         d="m 150.37143,36.529716 q 0.6517,0 1.11675,0.575772 0.30687,0.452393 0.30687,0.88264 v 0.03796 q 0,0.145525 -0.019,0.145525 h -2.40116 q 0,0.151852 0.12654,0.427084 0.18982,0.354321 0.5473,0.493519 0.174,0.05694 0.3132,0.05694 0.43341,0 0.74977,-0.376467 0.11073,-0.151852 0.14553,-0.243596 h 0.006 q 0.25625,0.101235 0.40177,0.170833 -0.0696,0.199306 -0.31003,0.465048 -0.43657,0.427083 -0.9902,0.427083 -0.66119,0 -1.1294,-0.578936 -0.30687,-0.439738 -0.30687,-0.933257 v -0.02847 q 0,-0.632717 0.4524,-1.107255 0.42391,-0.414429 0.9902,-0.414429 z m -0.95224,1.205325 h 1.89183 q -0.13287,-0.414429 -0.44923,-0.610572 -0.23094,-0.148688 -0.50301,-0.148688 -0.46188,0 -0.78773,0.430248 -0.10124,0.148688 -0.15186,0.329012 z"
         style="font-style:normal;font-variant:normal;font-weight:normal;font-stretch:normal;font-size:15.5222px;line-height:0.85;font-family:'Louis George Café';-inkscape-font-specification:'Louis George Café';fill:#000000;fill-opacity:1;stroke:none;stroke-width:0.110438"
         id="path865" />
    </g>
    <g
       id="g947"
       style="fill:#ff2a2a;fill-opacity:1"
       transform="matrix(1.5032445,0,0,1.5032445,-41.898142,-20.518211)">
      <path
         d="m 84.338522,43.820746 h 1.084863 l 0.02429,0.02429 V 49.1722 h 5.230014 v -5.327166 l 0.01619,-0.02429 h 1.09296 l 0.02429,0.02429 v 11.803963 l -0.02429,0.02429 h -1.09296 l -0.01619,-0.02429 v -5.343358 h -5.230014 v 5.343358 l -0.02429,0.02429 h -1.084863 l -0.02429,-0.02429 V 43.845034 Z"
         style="font-style:normal;font-variant:normal;font-weight:normal;font-stretch:normal;font-size:16.5806px;line-height:0.85;font-family:'Louis George Café';-inkscape-font-specification:'Louis George Café';fill:#ff2a2a;fill-opacity:1;stroke:none;stroke-width:0.264583"
         id="path867" />
      <path
         d="m 97.777876,47.901128 q 1.594911,0 2.542144,1.311552 l 0.0243,0.04858 h 0.008 v -1.26298 l 0.0162,-0.02429 h 1.09296 l 0.0243,0.02429 v 7.650717 l -0.0243,0.02429 h -1.09296 l -0.0162,-0.02429 v -1.246783 h -0.008 q -0.874371,1.343935 -2.639298,1.343935 v -0.0081 l -0.01619,0.0081 q -1.570623,0 -2.752639,-1.262975 -0.987711,-1.182016 -0.987711,-2.606911 v -0.09715 q 0,-1.522048 1.092959,-2.720255 1.149632,-1.157728 2.736447,-1.157728 z m -2.695967,3.894175 v 0.04048 q 0,1.352031 1.084864,2.242591 0.680063,0.52624 1.513951,0.52624 1.756831,0 2.428796,-1.724448 0.17811,-0.501951 0.17811,-1.003903 v -0.178112 q 0,-0.704352 -0.445275,-1.473472 -0.761023,-1.173919 -2.032095,-1.173919 -1.716351,0 -2.493567,1.619199 -0.234784,0.574816 -0.234784,1.125344 z"
         style="font-style:normal;font-variant:normal;font-weight:normal;font-stretch:normal;font-size:16.5806px;line-height:0.85;font-family:'Louis George Café';-inkscape-font-specification:'Louis George Café';fill:#ff2a2a;fill-opacity:1;stroke:none;stroke-width:0.264583"
         id="path869" />
      <path
         d="m 107.05589,47.925416 h 0.21049 q 1.19011,0 2.28307,0.89056 0.52624,0.510048 0.69626,0.801504 l -0.93914,0.631487 q -0.50195,-0.777215 -1.42489,-1.084863 -0.33194,-0.105248 -0.66387,-0.105248 h -0.12954 q -0.97152,0 -1.78921,0.833888 -0.73674,0.850079 -0.73674,1.934943 v 0.04048 q 0,1.157727 0.87437,2.040191 0.77721,0.704352 1.72445,0.704352 1.18201,0 2.03209,-1.044384 l 0.12144,-0.170016 0.95533,0.615296 q -0.70435,1.101055 -1.99162,1.554431 -0.58291,0.178112 -1.11724,0.178112 -1.40871,0 -2.53405,-1.036288 -1.19821,-1.230591 -1.19821,-2.833598 v -0.08906 q 0,-1.594912 1.19011,-2.825503 1.14154,-1.036288 2.4369,-1.036288 z"
         style="font-style:normal;font-variant:normal;font-weight:normal;font-stretch:normal;font-size:16.5806px;line-height:0.85;font-family:'Louis George Café';-inkscape-font-specification:'Louis George Café';fill:#ff2a2a;fill-opacity:1;stroke:none;stroke-width:0.264583"
         id="path871" />
      <path
         d="m 112.06731,43.820746 h 1.08486 l 0.0243,0.02429 v 7.820733 l 3.8456,-3.691775 h 1.6111 v 0.01619 l -3.4327,3.311263 3.45699,4.363742 -0.008,0.0081 h -1.46538 q -0.081,-0.08096 -2.44499,-3.116959 l -0.37242,-0.453375 q -1.17392,1.133439 -1.19011,1.133439 v 2.412607 l -0.0243,0.02429 h -1.08486 l -0.0243,-0.02429 V 43.845034 Z"
         style="font-style:normal;font-variant:normal;font-weight:normal;font-stretch:normal;font-size:16.5806px;line-height:0.85;font-family:'Louis George Café';-inkscape-font-specification:'Louis George Café';fill:#ff2a2a;fill-opacity:1;stroke:none;stroke-width:0.264583"
         id="path873" />
      <path
         d="m 120.30094,47.982088 h 1.11725 l 0.008,0.0081 v 7.675005 l -0.008,0.0081 h -1.11725 l -0.008,-0.0081 v -7.675005 z m 0.52624,-4.161342 h 0.0648 q 0.29955,0 0.56672,0.259072 0.21049,0.250976 0.21049,0.52624 v 0.04048 q 0,0.348128 -0.29145,0.6072 -0.23479,0.186208 -0.49386,0.186208 h -0.0486 q -0.35622,0 -0.61529,-0.315744 -0.17002,-0.226688 -0.17002,-0.461472 v -0.06477 q 0,-0.307648 0.25907,-0.56672 0.25098,-0.210496 0.51815,-0.210496 z"
         style="font-style:normal;font-variant:normal;font-weight:normal;font-stretch:normal;font-size:16.5806px;line-height:0.85;font-family:'Louis George Café';-inkscape-font-specification:'Louis George Café';fill:#ff2a2a;fill-opacity:1;stroke:none;stroke-width:0.264583"
         id="path875" />
      <path
         d="m 127.30398,47.982088 h 0.13763 q 2.27497,0 3.06028,1.74064 0.2024,0.518143 0.2024,1.084863 v 4.841406 l -0.0243,0.02429 h -1.09296 l -0.0162,-0.02429 v -4.841406 q 0,-1.190111 -1.22249,-1.586815 -0.28336,-0.105248 -1.10915,-0.105248 -1.012,0 -1.51395,0.420992 -0.6072,0.396704 -0.6072,1.335839 v 4.776638 l -0.0243,0.02429 h -1.08486 l -0.0243,-0.02429 V 48.11972 l 0.0243,-0.02429 h 1.08486 l 0.0243,0.02429 v 0.752928 q 0.89056,-0.89056 2.18592,-0.89056 z"
         style="font-style:normal;font-variant:normal;font-weight:normal;font-stretch:normal;font-size:16.5806px;line-height:0.85;font-family:'Louis George Café';-inkscape-font-specification:'Louis George Café';fill:#ff2a2a;fill-opacity:1;stroke:none;stroke-width:0.264583"
         id="path877" />
      <path
         d="m 134.02365,50.759015 v 0.07286 q 0,0.510048 0.37242,0.995808 0.1943,0.218592 0.29955,0.291456 0.54243,0.404799 1.22249,0.404799 0.73674,0 1.31156,-0.493855 0.56672,-0.534336 0.56672,-1.238688 0,-0.655776 -0.51005,-1.182015 -0.26717,-0.250976 -0.56672,-0.380512 -0.39671,-0.170016 -0.79341,-0.170016 h -0.0405 q -0.53434,0 -1.02819,0.291456 -0.14573,0.08096 -0.37242,0.307648 -0.23478,0.259072 -0.32384,0.485759 -0.13763,0.315744 -0.13763,0.615296 z m -0.21049,5.829118 v 0.01619 q 0,0.518143 0.56672,0.947231 0.71244,0.477664 1.8135,0.477664 1.0039,0 1.72445,-0.469568 0.12953,-0.08096 0.31574,-0.275264 0.34813,-0.388607 0.34813,-0.769119 v -0.02429 q 0,-0.372416 -0.31575,-0.680064 -0.24288,-0.218592 -0.63958,-0.340032 -0.50195,-0.129536 -0.96342,-0.129536 h -0.76912 q -0.6072,0 -1.07677,-0.07286 -0.2024,0.12144 -0.51814,0.4048 -0.48576,0.501952 -0.48576,0.914848 z m 2.08876,-8.662717 q 0.97962,0 1.80541,0.558624 0.17811,-0.194304 0.27526,-0.259072 0.29146,-0.194304 0.54244,-0.24288 0.21049,-0.05667 0.4048,-0.05667 h 0.25097 l 0.008,0.0081 v 1.117248 l -0.008,0.0081 h -0.2024 q -0.25097,0 -0.38861,0.145728 -0.0648,0.08096 -0.0648,0.145728 0.13763,0.210496 0.25907,0.550528 0.14573,0.445279 0.14573,0.890559 0,1.09296 -0.79341,1.943039 -0.33194,0.315744 -0.49386,0.4048 -0.23478,0.16192 -0.54243,0.291456 -0.57482,0.226688 -1.16582,0.226688 h -0.0486 q -0.68816,0 -1.35203,-0.307648 -0.15382,0.186208 -0.15382,0.396704 0,0.194304 0.12144,0.24288 0.32383,0.226688 1.48966,0.226688 l 0.56672,-0.0081 q 1.57872,0 2.44499,0.736735 0.22669,0.218592 0.31574,0.340032 0.39671,0.574816 0.39671,1.222496 0,0.647679 -0.421,1.271071 -0.0971,0.153824 -0.37241,0.420992 -0.29146,0.259072 -0.46957,0.36432 -0.22669,0.145728 -0.49385,0.259072 -0.34004,0.137632 -0.64768,0.218592 -0.55863,0.12144 -0.97962,0.12144 h -0.27526 q -0.71245,0 -1.48157,-0.250976 -0.38051,-0.145728 -0.68006,-0.32384 -0.2105,-0.129536 -0.45338,-0.340032 -0.21859,-0.218592 -0.31574,-0.348128 -0.44528,-0.623392 -0.44528,-1.262975 v -0.08906 q 0,-0.655776 0.52624,-1.368224 0.2024,-0.24288 0.3967,-0.380512 l 0.0486,-0.04048 q -0.4048,-0.388607 -0.4048,-1.003903 v -0.02429 q 0,-0.558624 0.35622,-1.036288 0.0162,-0.01619 0.0162,-0.03238 -0.17811,-0.194304 -0.31574,-0.412895 -0.4129,-0.68816 -0.4129,-1.45728 0,-1.052479 0.74483,-1.886367 0.27527,-0.28336 0.36432,-0.340032 0.25098,-0.186208 0.52624,-0.32384 0.67197,-0.315744 1.37632,-0.315744 z"
         style="font-style:normal;font-variant:normal;font-weight:normal;font-stretch:normal;font-size:16.5806px;line-height:0.85;font-family:'Louis George Café';-inkscape-font-specification:'Louis George Café';fill:#ff2a2a;fill-opacity:1;stroke:none;stroke-width:0.264583"
         id="path879" />
    </g>
    <g
       id="g992"
       style="fill:#000000"
       transform="matrix(0.91138139,0,0,0.91138139,8.082191,12.804789)">
      <path
         d="m 87.611734,59.10073 h 0.07514 q 1.59044,0 2.874062,1.296145 0.569803,0.67625 0.707558,1.026898 -0.751389,0.388218 -0.776435,0.388218 -0.162801,-0.31308 -0.425787,-0.651205 Q 89.02059,59.97735 87.668091,59.97735 h -0.03758 q -1.415115,0 -2.460798,1.264838 -0.814004,1.095774 -0.814004,2.410704 v 0.06262 q 0,1.527823 1.058206,2.692476 0.983066,0.983066 2.247904,0.983066 1.383807,0 2.435751,-1.221006 0.256724,-0.350648 0.407002,-0.638681 l 0.770174,0.400741 q -0.144017,0.375695 -0.75765,1.089513 -1.264838,1.246053 -2.880324,1.246053 -1.721931,0 -3.036862,-1.440161 -1.120821,-1.396331 -1.120821,-3.112001 v -0.06262 q 0,-1.884733 1.314931,-3.312371 1.258575,-1.239791 2.817706,-1.239791 z"
         style="font-style:normal;font-variant:normal;font-weight:normal;font-stretch:normal;font-size:10.5833px;line-height:0.85;font-family:'Louis George Café';-inkscape-font-specification:'Louis George Café';fill:#000000;fill-opacity:1;stroke:none;stroke-width:0.320593"
         id="path881" />
      <path
         d="m 95.056742,62.275347 h 0.162802 q 0.964281,0 1.828378,0.745127 0.983067,0.958019 0.983067,2.279212 0,1.339976 -1.033159,2.316781 -0.851575,0.707557 -1.859688,0.707557 -1.083251,0 -1.959871,-0.801481 -0.926713,-0.958021 -0.926713,-2.19155 v -0.07514 q 0,-1.227268 0.920452,-2.179026 0.882881,-0.801481 1.884732,-0.801481 z m -1.928564,3.018077 v 0.03131 q 0,0.882882 0.663727,1.565393 0.607372,0.55728 1.346237,0.55728 0.945498,0 1.615486,-0.864097 0.40074,-0.613634 0.40074,-1.289884 0,-0.945498 -0.713818,-1.63427 -0.582327,-0.507187 -1.264838,-0.507187 h -0.09392 q -0.745128,0 -1.390069,0.644941 -0.563542,0.657466 -0.563542,1.496516 z"
         style="font-style:normal;font-variant:normal;font-weight:normal;font-stretch:normal;font-size:10.5833px;line-height:0.85;font-family:'Louis George Café';-inkscape-font-specification:'Louis George Café';fill:#000000;fill-opacity:1;stroke:none;stroke-width:0.320593"
         id="path883" />
      <path
         d="m 102.11979,62.319177 h 0.10645 q 1.39007,0 2.08511,0.857836 0.68877,-0.857836 2.06006,-0.857836 h 0.17532 q 1.68436,0 2.31677,1.227268 0.20038,0.43831 0.20038,0.901666 v 3.800774 l -0.0125,0.01878 h -0.84531 l -0.0188,-0.01878 v -3.78825 q 0,-0.751389 -0.7514,-1.11456 -0.36943,-0.150278 -0.85156,-0.150278 h -0.2129 q -1.17718,0 -1.52782,0.79522 -0.0939,0.219155 -0.0939,0.582326 v 3.675542 l -0.0188,0.01878 h -0.84532 l -0.0125,-0.01878 v -3.744419 q 0,-0.920451 -0.94549,-1.227268 -0.21916,-0.0814 -0.85784,-0.0814 -0.78269,0 -1.17091,0.325602 -0.46962,0.306816 -0.46962,1.033159 v 3.694327 l -0.0188,0.01878 h -0.83905 l -0.01878,-0.01878 v -5.823261 l 0.01878,-0.01878 h 0.83905 l 0.0188,0.01878 v 0.582326 q 0.68877,-0.688773 1.69063,-0.688773 z"
         style="font-style:normal;font-variant:normal;font-weight:normal;font-stretch:normal;font-size:10.5833px;line-height:0.85;font-family:'Louis George Café';-inkscape-font-specification:'Louis George Café';fill:#000000;fill-opacity:1;stroke:none;stroke-width:0.320593"
         id="path885" />
      <path
         d="m 113.86651,62.256562 0.006,0.01252 h 0.0125 l 0.006,-0.01252 q 1.08326,0 1.95987,0.807743 0.4571,0.475879 0.63868,0.889143 0.28803,0.657465 0.28803,1.264837 v 0.137754 q 0,1.15213 -0.87036,2.11015 -0.88914,0.857835 -2.09135,0.857835 -1.23354,0 -1.96614,-1.014374 l -0.0188,-0.03131 h -0.006 v 3.66928 l -0.0188,0.01878 h -0.83905 l -0.0188,-0.01878 v -8.534519 l 0.0188,-0.01253 h 0.83905 l 0.0188,0.01253 v 0.889144 q 0.69504,-1.045683 2.04128,-1.045683 z m -1.99119,3.036862 v 0.06262 q 0,0.763912 0.55102,1.452685 0.55728,0.632418 1.37755,0.632418 1.25232,0 1.86594,-1.145867 0.23168,-0.482141 0.23168,-0.964282 v -0.09392 q 0,-0.857834 -0.66372,-1.540346 -0.58859,-0.551018 -1.33998,-0.551018 -1.35876,0 -1.87221,1.308668 -0.15028,0.40074 -0.15028,0.839051 z"
         style="font-style:normal;font-variant:normal;font-weight:normal;font-stretch:normal;font-size:10.5833px;line-height:0.85;font-family:'Louis George Café';-inkscape-font-specification:'Louis George Café';fill:#000000;fill-opacity:1;stroke:none;stroke-width:0.320593"
         id="path887" />
      <path
         d="m 120.64778,62.262824 q 1.28989,0 2.21034,1.139606 0.60737,0.895403 0.60737,1.746978 v 0.07514 q 0,0.288033 -0.0376,0.288033 h -4.75253 q 0,0.300555 0.25047,0.845312 0.37568,0.701296 1.08325,0.976804 0.34439,0.112712 0.61989,0.112712 0.85784,0 1.48399,-0.745128 0.21916,-0.300555 0.28803,-0.48214 h 0.0125 q 0.50718,0.20037 0.79521,0.338125 -0.13774,0.394478 -0.61362,0.92045 -0.86411,0.845312 -1.95988,0.845312 -1.30866,0 -2.23537,-1.145867 -0.60738,-0.870358 -0.60738,-1.847163 v -0.05636 q 0,-1.252314 0.89541,-2.19155 0.83905,-0.820265 1.95986,-0.820265 z m -1.88473,2.385657 h 3.74442 q -0.26299,-0.820265 -0.88914,-1.208482 -0.4571,-0.294294 -0.9956,-0.294294 -0.91418,0 -1.55913,0.851573 -0.20037,0.294295 -0.30055,0.651203 z"
         style="font-style:normal;font-variant:normal;font-weight:normal;font-stretch:normal;font-size:10.5833px;line-height:0.85;font-family:'Louis George Café';-inkscape-font-specification:'Louis George Café';fill:#000000;fill-opacity:1;stroke:none;stroke-width:0.320593"
         id="path889" />
      <path
         d="m 125.16864,59.10073 h 0.87035 l 0.006,0.0063 v 3.212185 h 1.61549 l 0.006,0.0063 v 0.870358 l -0.006,0.0063 h -1.61549 v 3.437602 q 0,0.256724 0.1315,0.475879 0.13149,0.175324 0.35691,0.244202 0.10021,0.03131 0.17532,0.03131 h 0.0376 q 0.23169,0 0.65121,-0.162801 l 0.0751,-0.03757 q 0.31934,0.701295 0.3569,0.801481 -0.0876,0.05009 -0.3569,0.144016 -0.43831,0.131493 -0.68877,0.131493 h -0.10651 q -0.33186,0 -0.70129,-0.194109 -0.49468,-0.269248 -0.68878,-0.782696 -0.11899,-0.325602 -0.11899,-0.707558 v -3.381248 h -0.98305 l -0.006,-0.0063 v -0.870359 l 0.006,-0.0063 h 0.98305 z"
         style="font-style:normal;font-variant:normal;font-weight:normal;font-stretch:normal;font-size:10.5833px;line-height:0.85;font-family:'Louis George Café';-inkscape-font-specification:'Louis George Café';fill:#000000;fill-opacity:1;stroke:none;stroke-width:0.320593"
         id="path891" />
      <path
         d="m 129.26371,62.319177 h 0.86409 l 0.006,0.0063 v 5.935969 l -0.006,0.0063 h -0.86409 l -0.006,-0.0063 v -5.935969 z m 0.407,-3.218447 h 0.05 q 0.23167,0 0.4383,0.20037 0.1628,0.194109 0.1628,0.407002 v 0.03131 q 0,0.269247 -0.22542,0.469617 -0.18158,0.144017 -0.38195,0.144017 h -0.0376 q -0.2755,0 -0.47588,-0.244202 -0.13149,-0.175323 -0.13149,-0.35691 v -0.05009 q 0,-0.237939 0.20037,-0.43831 0.1941,-0.162801 0.40075,-0.162801 z"
         style="font-style:normal;font-variant:normal;font-weight:normal;font-stretch:normal;font-size:10.5833px;line-height:0.85;font-family:'Louis George Café';-inkscape-font-specification:'Louis George Café';fill:#000000;fill-opacity:1;stroke:none;stroke-width:0.320593"
         id="path893" />
      <path
         d="m 132.35066,59.10073 h 0.87036 l 0.006,0.0063 v 3.212185 h 1.61548 l 0.006,0.0063 v 0.870358 l -0.006,0.0063 h -1.61548 v 3.437602 q 0,0.256724 0.13149,0.475879 0.13149,0.175324 0.3569,0.244202 0.10021,0.03131 0.17534,0.03131 h 0.0376 q 0.23169,0 0.65121,-0.162801 l 0.0751,-0.03757 q 0.31935,0.701295 0.35691,0.801481 -0.0876,0.05009 -0.35691,0.144016 -0.43831,0.131493 -0.68877,0.131493 h -0.10651 q -0.33186,0 -0.70129,-0.194109 -0.49467,-0.269248 -0.68877,-0.782696 -0.11899,-0.325602 -0.11899,-0.707558 v -3.381248 h -0.98307 l -0.006,-0.0063 v -0.870359 l 0.006,-0.0063 h 0.98307 z"
         style="font-style:normal;font-variant:normal;font-weight:normal;font-stretch:normal;font-size:10.5833px;line-height:0.85;font-family:'Louis George Café';-inkscape-font-specification:'Louis George Café';fill:#000000;fill-opacity:1;stroke:none;stroke-width:0.320593"
         id="path895" />
      <path
         d="m 136.44573,62.319177 h 0.86409 l 0.006,0.0063 v 5.935969 l -0.006,0.0063 h -0.86409 l -0.006,-0.0063 v -5.935969 z m 0.407,-3.218447 h 0.0502 q 0.23167,0 0.4383,0.20037 0.16281,0.194109 0.16281,0.407002 v 0.03131 q 0,0.269247 -0.22543,0.469617 -0.18158,0.144017 -0.38195,0.144017 h -0.0376 q -0.2755,0 -0.47588,-0.244202 -0.13149,-0.175323 -0.13149,-0.35691 v -0.05009 q 0,-0.237939 0.20038,-0.43831 0.1941,-0.162801 0.40073,-0.162801 z"
         style="font-style:normal;font-variant:normal;font-weight:normal;font-stretch:normal;font-size:10.5833px;line-height:0.85;font-family:'Louis George Café';-inkscape-font-specification:'Louis George Café';fill:#000000;fill-opacity:1;stroke:none;stroke-width:0.320593"
         id="path897" />
      <path
         d="m 139.53894,62.319177 q 0.0188,0.0063 2.03501,4.708702 0.0125,-0.0063 0.92671,-2.135196 l 1.11457,-2.573506 h 0.97054 l 0.0188,0.01878 -2.59855,5.929709 h -0.84531 q -0.0251,-0.0063 -0.21916,-0.482142 l -2.39192,-5.460089 0.006,-0.0063 z"
         style="font-style:normal;font-variant:normal;font-weight:normal;font-stretch:normal;font-size:10.5833px;line-height:0.85;font-family:'Louis George Café';-inkscape-font-specification:'Louis George Café';fill:#000000;fill-opacity:1;stroke:none;stroke-width:0.320593"
         id="path899" />
      <path
         d="m 148.18618,62.275347 h 0.1628 q 0.96427,0 1.82837,0.745127 0.98307,0.958019 0.98307,2.279212 0,1.339976 -1.03316,2.316781 -0.85157,0.707557 -1.85968,0.707557 -1.08326,0 -1.95988,-0.801481 -0.92671,-0.958021 -0.92671,-2.19155 v -0.07514 q 0,-1.227268 0.92045,-2.179026 0.88288,-0.801481 1.88474,-0.801481 z m -1.92857,3.018077 v 0.03131 q 0,0.882882 0.66373,1.565393 0.60737,0.55728 1.34624,0.55728 0.94549,0 1.61548,-0.864097 0.40074,-0.613634 0.40074,-1.289884 0,-0.945498 -0.71382,-1.63427 -0.58233,-0.507187 -1.26484,-0.507187 h -0.0939 q -0.74513,0 -1.39006,0.644941 -0.56355,0.657466 -0.56355,1.496516 z"
         style="font-style:normal;font-variant:normal;font-weight:normal;font-stretch:normal;font-size:10.5833px;line-height:0.85;font-family:'Louis George Café';-inkscape-font-specification:'Louis George Café';fill:#000000;fill-opacity:1;stroke:none;stroke-width:0.320593"
         id="path901" />
    </g>
    <g
       aria-label="!"
       id="text3238"
       style="font-style:normal;font-weight:normal;font-size:10.5833px;line-height:1.25;font-family:sans-serif;fill:#000000;fill-opacity:1;stroke:none;stroke-width:0.264583">
      <g
         id="g3367"
         transform="translate(1.0583333,0.52916667)" />
    </g>
    <path
       style="fill:#ff2a2a;fill-opacity:1;stroke:none;stroke-width:0.339668px;stroke-linecap:butt;stroke-linejoin:miter;stroke-opacity:1"
       d="M 79.006191,31.96627 43.459457,46.80674 79.006191,61.647212 Z"
       id="path315"
       sodipodi:nodetypes="cccc" />
    <path
       id="path5684-0-1"
       style="color:#000000;font-style:normal;font-variant:normal;font-weight:normal;font-stretch:normal;font-size:medium;line-height:normal;font-family:sans-serif;font-variant-ligatures:normal;font-variant-position:normal;font-variant-caps:normal;font-variant-numeric:normal;font-variant-alternates:normal;font-feature-settings:normal;text-indent:0;text-align:start;text-decoration:none;text-decoration-line:none;text-decoration-style:solid;text-decoration-color:#000000;letter-spacing:normal;word-spacing:normal;text-transform:none;writing-mode:lr-tb;direction:ltr;text-orientation:mixed;dominant-baseline:auto;baseline-shift:baseline;text-anchor:start;white-space:normal;shape-padding:0;clip-rule:nonzero;display:inline;overflow:visible;visibility:visible;isolation:auto;mix-blend-mode:normal;color-interpolation:sRGB;color-interpolation-filters:linearRGB;solid-color:#000000;solid-opacity:1;vector-effect:none;fill:#ffffff;fill-opacity:1;fill-rule:nonzero;stroke:none;stroke-width:0.319313;stroke-linecap:round;stroke-linejoin:round;stroke-miterlimit:4;stroke-dasharray:none;stroke-dashoffset:0;stroke-opacity:1;color-rendering:auto;image-rendering:auto;shape-rendering:auto;text-rendering:auto;enable-background:accumulate"
       d="m 66.690136,40.90713 2.53e-4,2.56e-4 v 7.71e-4 10e-4 c -1.222354,-0.01038 -2.277178,0.688767 -2.787485,1.708136 0,0 -0.327821,0.771566 -0.327821,1.80304 v 2.065673 c -0.467747,0.234538 -0.786925,0.715405 -0.780151,1.279783 l 0.05759,2.709867 c 0.01041,0.797868 0.661324,1.442364 1.459029,1.44564 l 4.90973,0.02044 c 0.797695,0.0051 1.431725,-0.636518 1.422156,-1.434368 l -0.05834,-2.709919 C 70.579197,47.269 70.287954,46.812942 69.863032,46.560666 69.454714,46.371837 68.617178,46.349182 68.616406,46.349161 l -2.53e-4,-5e-6 -3.794434,-0.01612 v -1.713103 c 0,0 -0.03446,-1.156748 0.442231,-1.797156 0.34358,-0.408826 0.854449,-0.670998 1.437307,-0.666853 l 2.53e-4,4e-6 c 0.59022,0.0049 1.111677,0.280421 1.46307,0.702932 0.0019,-2.3e-4 0.0044,-5.52e-4 0.0063,-7.05e-4 -1.95e-4,4.6e-4 -0.0025,0.0011 -0.0025,0.0015 0.476688,0.655754 0.448544,1.798867 0.448544,1.798867 -0.0015,0.0037 4.88e-4,0.0062 0,0.0096 -2.64e-4,3.6e-5 -5.38e-4,-4.6e-5 -10e-4,-7e-6 v 1.065037 c 10e-4,-6.8e-5 0.0021,-9.25e-4 0.003,-10e-4 0.596377,0.143133 1.241833,0.02072 1.2441,0.02028 v -0.362926 l -0.03106,-4.98e-4 c -0.05415,-8.48e-4 -0.09774,-0.04519 -0.09774,-0.09932 v -0.332619 c 0,-0.05415 0.04359,-0.09704 0.09774,-0.09617 l 0.03106,4.99e-4 v -0.362674 c 0,-1.025246 -0.334861,-1.801117 -0.338931,-1.810491 2.63e-4,-4.1e-5 0.001,4.9e-5 0.001,7e-6 -4.89e-4,-0.0012 -0.0021,-0.0021 -0.0025,-0.0033 -0.523454,-1.042947 -1.597919,-1.7691 -2.832441,-1.777866 z m 5.405502,3.023251 c -0.0576,-0.0018 -0.114211,0.01943 -0.158102,0.06261 -0.01461,0.01439 -0.03289,0.03233 -0.05481,0.06125 l -1.104689,1.218239 c -0.07681,0.08288 -0.08049,0.152334 -0.02197,0.211795 0.05852,0.05947 0.124494,0.05328 0.208613,-0.02215 l 1.239808,-1.080945 0.06592,-0.05753 c 0.08411,-0.07546 0.08034,-0.225494 -0.01111,-0.318401 -0.04755,-0.04832 -0.106052,-0.07303 -0.163657,-0.07486 z m 0.554365,2.019033 c -0.02067,-3.35e-4 -0.04635,-8.48e-4 -0.08259,0.0037 l -1.655266,0.06655 c -0.11379,0.0033 -0.165425,0.04894 -0.165425,0.131698 0,0.08276 0.05163,0.124971 0.165425,0.13197 l 1.655266,0.12489 0.08789,0.0067 c 0.113796,0.007 0.2172,-0.100052 0.2172,-0.229362 0,-0.134482 -0.09837,-0.234188 -0.222504,-0.236187 z m -1.850241,0.831693 c -0.0352,-0.0037 -0.06722,0.0096 -0.09648,0.03835 -0.05852,0.05758 -0.0513,0.123415 0.0255,0.20877 l 1.100902,1.257528 0.05859,0.06687 c 0.07681,0.08535 0.226788,0.08426 0.318224,-0.0057 0.09509,-0.09356 0.09508,-0.232704 0.0073,-0.321896 -0.01461,-0.01486 -0.03314,-0.03339 -0.06238,-0.05581 l -1.23602,-1.124333 c -0.04206,-0.03908 -0.08047,-0.05998 -0.115671,-0.06374 z m -4.078309,0.901146 c 0.495187,0.0092 0.895517,0.418847 0.893298,0.913992 -0.0015,0.33963 -0.194986,0.645157 -0.499812,0.790038 l 0.429348,1.220705 -1.669662,-0.02688 0.443998,-1.209931 c -0.303756,-0.156832 -0.495888,-0.4702 -0.495266,-0.809844 0.001,-0.494735 0.403345,-0.887038 0.898096,-0.878085 z" />
  </g>
</svg>
